<svg width="126" height="20" viewBox="0 0 126 20" fill="none" xmlns="http://www.w3.org/2000/svg">
<path d="M0.171875 19H-0.828125V20H0.171875V19ZM0.171875 0.818181V-0.181819H-0.828125V0.818181H0.171875ZM11.5621 1.61719L11.0964 2.50211H11.0964L11.5621 1.61719ZM13.9237 3.86328L14.7876 3.35974L13.9237 3.86328ZM13.897 10.6282L13.0428 10.1082L13.0405 10.1121L13.897 10.6282ZM11.4734 12.8299L11.0302 11.9334L11.0282 11.9345L11.4734 12.8299ZM3.15483 13.6023H2.15483V14.6023H3.15483V13.6023ZM3.15483 9.76705V8.76705H2.15483V9.76705H3.15483ZM8.33061 9.4652L8.77262 10.3622L8.77782 10.3596L8.33061 9.4652ZM9.28054 8.58629L8.42063 8.07572L8.4148 8.08579L9.28054 8.58629ZM9.28054 5.91406L8.41825 6.42048L8.42302 6.4286L8.42794 6.43663L9.28054 5.91406ZM8.33061 5.06179L7.88861 5.9588L7.89637 5.96263L7.90419 5.96632L8.33061 5.06179ZM5.10795 4.75994V3.75994H4.10795V4.75994H5.10795ZM5.10795 19V20H6.10795V19H5.10795ZM1.17188 19V0.818181H-0.828125V19H1.17188ZM0.171875 1.81818H8.01989V-0.181819H0.171875V1.81818ZM8.01989 1.81818C9.23619 1.81818 10.2517 2.05752 11.0964 2.50211L12.0279 0.732269C10.8485 0.111511 9.50245 -0.181819 8.01989 -0.181819V1.81818ZM11.0964 2.50211C11.9469 2.94971 12.5942 3.56812 13.0597 4.36682L14.7876 3.35974C14.1286 2.22899 13.2016 1.35 12.0279 0.732269L11.0964 2.50211ZM13.0597 4.36682C13.5198 5.15628 13.767 6.10454 13.767 7.24574H15.767C15.767 5.80645 15.452 4.49973 14.7876 3.35974L13.0597 4.36682ZM13.767 7.24574C13.767 8.39553 13.5125 9.33663 13.0428 10.1082L14.7512 11.1481C15.4416 10.014 15.767 8.70012 15.767 7.24574H13.767ZM13.0405 10.1121C12.5695 10.8938 11.9086 11.4993 11.0302 11.9334L11.9165 13.7264C13.1215 13.1307 14.0763 12.2683 14.7536 11.1443L13.0405 10.1121ZM11.0282 11.9345C10.1555 12.3683 9.10298 12.6023 7.84233 12.6023V14.6023C9.35157 14.6023 10.7198 14.3213 11.9185 13.7253L11.0282 11.9345ZM7.84233 12.6023H3.15483V14.6023H7.84233V12.6023ZM4.15483 13.6023V9.76705H2.15483V13.6023H4.15483ZM3.15483 10.767H6.84801V8.76705H3.15483V10.767ZM6.84801 10.767C7.54057 10.767 8.19435 10.6472 8.77262 10.3622L7.88861 8.56819C7.65011 8.68571 7.31549 8.76705 6.84801 8.76705V10.767ZM8.77782 10.3596C9.35638 10.0704 9.82346 9.64517 10.1463 9.08679L8.4148 8.08579C8.29964 8.28499 8.13344 8.44575 7.8834 8.57077L8.77782 10.3596ZM10.1404 9.09683C10.4715 8.53913 10.6179 7.90964 10.6179 7.24574H8.6179C8.6179 7.61167 8.53936 7.87588 8.42069 8.07575L10.1404 9.09683ZM10.6179 7.24574C10.6179 6.57936 10.4729 5.94587 10.1331 5.3915L8.42794 6.43663C8.53797 6.61615 8.6179 6.87045 8.6179 7.24574H10.6179ZM10.1428 5.40764C9.81573 4.8507 9.34199 4.43303 8.75703 4.15726L7.90419 5.96632C8.14783 6.08117 8.30737 6.23169 8.41825 6.42048L10.1428 5.40764ZM8.77262 4.16478C8.19435 3.87983 7.54057 3.75994 6.84801 3.75994V5.75994C7.31549 5.75994 7.65011 5.84128 7.88861 5.9588L8.77262 4.16478ZM6.84801 3.75994H5.10795V5.75994H6.84801V3.75994ZM4.10795 4.75994V19H6.10795V4.75994H4.10795ZM5.10795 18H0.171875V20H5.10795V18ZM35.761 15.0316L36.6304 15.5257L36.6313 15.5242L35.761 15.0316ZM32.5739 18.1832L33.0428 19.0665L33.0459 19.0648L32.5739 18.1832ZM23.6072 18.1744L23.1306 19.0535L23.1352 19.056L23.6072 18.1744ZM20.429 15.0138L19.5571 15.5036L19.5596 15.508L20.429 15.0138ZM20.429 4.79545L19.5587 4.30291L19.558 4.30413L20.429 4.79545ZM23.6072 1.64382L24.0778 2.52617L24.0793 2.52542L23.6072 1.64382ZM32.5739 1.64382L32.1019 2.52542L32.1049 2.52704L32.5739 1.64382ZM35.761 4.79545L34.8907 5.288L34.8916 5.28959L35.761 4.79545ZM31.4286 7.15696L30.4932 7.51052L30.4966 7.51941L31.4286 7.15696ZM30.1591 5.45241L29.5844 6.27089L29.5944 6.27772L30.1591 5.45241ZM26.0309 5.45241L26.5997 6.27492L26.6015 6.27367L26.0309 5.45241ZM24.7614 7.15696L23.8284 6.79699L23.8269 6.80096L24.7614 7.15696ZM24.7614 12.6701L23.8259 13.0237L23.8294 13.0325L24.7614 12.6701ZM26.0309 14.3746L25.4562 15.1931L25.4662 15.2L26.0309 14.3746ZM30.1591 14.3746L30.7278 15.1972L30.7297 15.1959L30.1591 14.3746ZM31.4286 12.6701L30.4956 12.3101L30.4941 12.3141L31.4286 12.6701ZM35.9418 9.90909C35.9418 11.8058 35.5731 13.3334 34.8907 14.5391L36.6313 15.5242C37.5233 13.9481 37.9418 12.0607 37.9418 9.90909H35.9418ZM34.8916 14.5375C34.1928 15.7669 33.2646 16.6791 32.1019 17.3016L33.0459 19.0648C34.5583 18.2551 35.7549 17.0662 36.6304 15.5257L34.8916 14.5375ZM32.1049 17.3C30.924 17.9271 29.5957 18.2486 28.0994 18.2486V20.2486C29.8938 20.2486 31.5486 19.8599 33.0428 19.0665L32.1049 17.3ZM28.0994 18.2486C26.5914 18.2486 25.2586 17.9242 24.0793 17.2928L23.1352 19.056C24.6311 19.8569 26.2931 20.2486 28.0994 20.2486V18.2486ZM24.0839 17.2953C22.9252 16.667 21.9982 15.7509 21.2984 14.5197L19.5596 15.508C20.4341 17.0466 21.6259 18.2376 23.1306 19.0534L24.0839 17.2953ZM21.3008 14.5241C20.6228 13.317 20.2571 11.7939 20.2571 9.90909H18.2571C18.2571 12.0489 18.6726 13.9289 19.5571 15.5036L21.3008 14.5241ZM20.2571 9.90909C20.2571 8.01103 20.6234 6.48621 21.3 5.28678L19.558 4.30413C18.6721 5.87459 18.2571 7.75885 18.2571 9.90909H20.2571ZM21.2993 5.288C21.9987 4.05219 22.9237 3.14169 24.0778 2.52617L23.1367 0.761467C21.6274 1.56641 20.4336 2.757 19.5587 4.30291L21.2993 5.288ZM24.0793 2.52542C25.2586 1.89402 26.5914 1.5696 28.0994 1.5696V-0.430398C26.2931 -0.430398 24.6311 -0.0386705 23.1352 0.762224L24.0793 2.52542ZM28.0994 1.5696C29.5944 1.5696 30.9215 1.89346 32.1019 2.52542L33.0459 0.762224C31.551 -0.0381131 29.8952 -0.430398 28.0994 -0.430398V1.5696ZM32.1049 2.52704C33.2647 3.14288 34.1919 4.05332 34.8907 5.288L36.6313 4.30291C35.7557 2.75587 34.5582 1.56521 33.0428 0.760603L32.1049 2.52704ZM34.8916 5.28959C35.573 6.48841 35.9418 8.01217 35.9418 9.90909H37.9418C37.9418 7.75771 37.5233 5.87238 36.6304 4.30132L34.8916 5.28959ZM32.8636 9.90909C32.8636 8.73796 32.7086 7.68929 32.3606 6.79451L30.4966 7.51941C30.7287 8.11611 30.8636 8.90219 30.8636 9.90909H32.8636ZM32.364 6.80342C32.0209 5.89551 31.4836 5.14701 30.7238 4.62711L29.5944 6.27772C29.9591 6.52724 30.2682 6.9151 30.4932 7.5105L32.364 6.80342ZM30.7337 4.634C29.9775 4.10303 29.0796 3.86648 28.0994 3.86648V5.86648C28.7528 5.86648 29.228 6.02055 29.5845 6.27083L30.7337 4.634ZM28.0994 3.86648C27.1189 3.86648 26.2203 4.10316 25.4603 4.63116L26.6015 6.27367C26.966 6.02042 27.4464 5.86648 28.0994 5.86648V3.86648ZM25.4621 4.62991C24.7113 5.14913 24.1766 5.89458 23.8284 6.797L25.6943 7.51692C25.9262 6.91602 26.2378 6.52511 26.5996 6.27492L25.4621 4.62991ZM23.8269 6.80096C23.4868 7.69356 23.3352 8.73984 23.3352 9.90909H25.3352C25.3352 8.90032 25.4677 8.11183 25.6959 7.51296L23.8269 6.80096ZM23.3352 9.90909C23.3352 11.0787 23.4869 12.1267 23.8259 13.0236L25.6968 12.3166C25.4676 11.7102 25.3352 10.9175 25.3352 9.90909H23.3352ZM23.8294 13.0325C24.178 13.929 24.7115 14.6701 25.4563 15.1931L26.6055 13.5562C26.2376 13.2979 25.9248 12.9027 25.6934 12.3077L23.8294 13.0325ZM25.4662 15.2C26.2256 15.7195 27.1219 15.9517 28.0994 15.9517V13.9517C27.4434 13.9517 26.9608 13.7992 26.5956 13.5493L25.4662 15.2ZM28.0994 15.9517C29.0765 15.9517 29.9722 15.7196 30.7278 15.1972L29.5903 13.5521C29.2332 13.7991 28.7559 13.9517 28.0994 13.9517V15.9517ZM30.7297 15.1959C31.4834 14.6723 32.0195 13.928 32.3631 13.0261L30.4941 12.3141C30.2695 12.9036 29.9594 13.2958 29.5885 13.5534L30.7297 15.1959ZM32.3616 13.0301C32.7085 12.131 32.8636 11.0806 32.8636 9.90909H30.8636C30.8636 10.9156 30.7288 11.7059 30.4957 12.3101L32.3616 13.0301ZM41.9756 19H40.9756V20H41.9756V19ZM41.9756 0.818181V-0.181819H40.9756V0.818181H41.9756ZM46.9117 0.818181H47.9117V-0.181819H46.9117V0.818181ZM46.9117 15.0227H45.9117V16.0227H46.9117V15.0227ZM54.2625 15.0227H55.2625V14.0227H54.2625V15.0227ZM54.2625 19V20H55.2625V19H54.2625ZM42.9756 19V0.818181H40.9756V19H42.9756ZM41.9756 1.81818H46.9117V-0.181819H41.9756V1.81818ZM45.9117 0.818181V15.0227H47.9117V0.818181H45.9117ZM46.9117 16.0227H54.2625V14.0227H46.9117V16.0227ZM53.2625 15.0227V19H55.2625V15.0227H53.2625ZM54.2625 18H41.9756V20H54.2625V18ZM63.7308 19V20H64.4735L64.6881 19.289L63.7308 19ZM58.4041 19L57.4545 18.6866L57.021 20H58.4041V19ZM64.4055 0.818181V-0.181819H63.6825L63.4559 0.504737L64.4055 0.818181ZM71.1527 0.818181L72.1023 0.504737L71.8757 -0.181819H71.1527V0.818181ZM77.1541 19V20H78.5373L78.1037 18.6866L77.1541 19ZM71.8274 19L70.8701 19.289L71.0847 20H71.8274V19ZM67.8501 5.82528L68.8075 5.53628L68.5928 4.82528H67.8501V5.82528ZM67.7081 5.82528V4.82528H66.9654L66.7508 5.53628L67.7081 5.82528ZM62.7365 11.8267V10.8267H61.7365V11.8267H62.7365ZM72.7507 11.8267H73.7507V10.8267H72.7507V11.8267ZM72.7507 15.5199V16.5199H73.7507V15.5199H72.7507ZM62.7365 15.5199H61.7365V16.5199H62.7365V15.5199ZM63.7308 18H58.4041V20H63.7308V18ZM59.3537 19.3134L65.3551 1.13163L63.4559 0.504737L57.4545 18.6866L59.3537 19.3134ZM64.4055 1.81818H71.1527V-0.181819H64.4055V1.81818ZM70.2031 1.13163L76.2045 19.3134L78.1037 18.6866L72.1023 0.504737L70.2031 1.13163ZM77.1541 18H71.8274V20H77.1541V18ZM72.7847 18.711L68.8075 5.53628L66.8928 6.11429L70.8701 19.289L72.7847 18.711ZM67.8501 4.82528H67.7081V6.82528H67.8501V4.82528ZM66.7508 5.53628L62.7735 18.711L64.6881 19.289L68.6654 6.11429L66.7508 5.53628ZM62.7365 12.8267H72.7507V10.8267H62.7365V12.8267ZM71.7507 11.8267V15.5199H73.7507V11.8267H71.7507ZM72.7507 14.5199H62.7365V16.5199H72.7507V14.5199ZM63.7365 15.5199V11.8267H61.7365V15.5199H63.7365ZM81.6553 19H80.6553V20H81.6553V19ZM81.6553 0.818181V-0.181819H80.6553V0.818181H81.6553ZM93.0455 1.55504L92.6089 2.45467L93.0455 1.55504ZM95.4071 3.67685L96.2611 3.15673V3.15673L95.4071 3.67685ZM95.3804 10.2908L94.5416 9.74643L94.5391 9.75036L95.3804 10.2908ZM92.9568 12.315L92.5559 11.3988L92.554 11.3997L92.9568 12.315ZM84.6382 12.9986H83.6382V13.9986H84.6382V12.9986ZM84.6382 9.16335V8.16335H83.6382V9.16335H84.6382ZM89.814 8.95028L90.1425 9.89481L90.1503 9.89203L89.814 8.95028ZM90.7639 8.24893L89.9461 7.6734L89.939 7.6837L90.7639 8.24893ZM90.7639 5.72763L89.9296 6.27888L89.9353 6.28753L89.9412 6.29606L90.7639 5.72763ZM89.814 4.99964L89.4496 5.93089L89.4577 5.93405L89.4658 5.93707L89.814 4.99964ZM86.5914 4.75994V3.75994H85.5914V4.75994H86.5914ZM86.5914 19V20H87.5914V19H86.5914ZM92.3087 10.6548L93.1869 10.1765L92.9027 9.65483H92.3087V10.6548ZM96.8541 19V20H98.5375L97.7323 18.5217L96.8541 19ZM91.4919 19L90.609 19.4696L90.8912 20H91.4919V19ZM87.053 10.6548V9.65483H85.3884L86.1701 11.1244L87.053 10.6548ZM82.6553 19V0.818181H80.6553V19H82.6553ZM81.6553 1.81818H89.5033V-0.181819H81.6553V1.81818ZM89.5033 1.81818C90.7313 1.81818 91.7574 2.04137 92.6089 2.45467L93.4822 0.655416C92.3095 0.0862327 90.9742 -0.181819 89.5033 -0.181819V1.81818ZM92.6089 2.45467C93.4557 2.86568 94.0947 3.4445 94.553 4.19697L96.2611 3.15673C95.5948 2.0626 94.6596 1.22688 93.4822 0.655416L92.6089 2.45467ZM94.553 4.19697C95.0028 4.93558 95.2504 5.85461 95.2504 6.99716H97.2504C97.2504 5.55921 96.9359 4.2647 96.2611 3.15673L94.553 4.19697ZM95.2504 6.99716C95.2504 8.1492 94.9951 9.0476 94.5416 9.74644L96.2192 10.8352C96.9257 9.74667 97.2504 8.44928 97.2504 6.99716H95.2504ZM94.5391 9.75036C94.0792 10.4663 93.4303 11.0163 92.5559 11.3988L93.3576 13.2311C94.5666 12.7022 95.5335 11.9028 96.2218 10.8313L94.5391 9.75036ZM92.554 11.3997C91.6703 11.7885 90.6023 11.9986 89.3257 11.9986V13.9986C90.819 13.9986 92.1718 13.7529 93.3595 13.2303L92.554 11.3997ZM89.3257 11.9986H84.6382V13.9986H89.3257V11.9986ZM85.6382 12.9986V9.16335H83.6382V12.9986H85.6382ZM84.6382 10.1634H88.3314V8.16335H84.6382V10.1634ZM88.3314 10.1634C88.9875 10.1634 89.5993 10.0837 90.1425 9.89478L89.4855 8.00579C89.2119 8.10095 88.8353 8.16335 88.3314 8.16335V10.1634ZM90.1503 9.89203C90.7351 9.68318 91.235 9.33065 91.5889 8.81417L89.939 7.6837C89.8549 7.80642 89.7215 7.92146 89.4777 8.00854L90.1503 9.89203ZM91.5817 8.82443C91.9577 8.29017 92.1013 7.65333 92.1013 6.99716H90.1013C90.1013 7.37082 90.02 7.5685 89.9461 7.67344L91.5817 8.82443ZM92.1013 6.99716C92.1013 6.33673 91.9585 5.69736 91.5867 5.1592L89.9412 6.29606C90.0192 6.40894 90.1013 6.61592 90.1013 6.99716H92.1013ZM91.5983 5.17637C91.2492 4.64808 90.7519 4.28127 90.1622 4.06222L89.4658 5.93707C89.7047 6.02579 89.8407 6.1443 89.9296 6.27888L91.5983 5.17637ZM90.1784 4.0684C89.6231 3.85111 88.9981 3.75994 88.3314 3.75994V5.75994C88.8248 5.75994 89.1882 5.82858 89.4496 5.93089L90.1784 4.0684ZM88.3314 3.75994H86.5914V5.75994H88.3314V3.75994ZM85.5914 4.75994V19H87.5914V4.75994H85.5914ZM86.5914 18H81.6553V20H86.5914V18ZM91.4305 11.1332L95.976 19.4783L97.7323 18.5217L93.1869 10.1765L91.4305 11.1332ZM96.8541 18H91.4919V20H96.8541V18ZM92.3748 18.5304L87.9359 10.1852L86.1701 11.1244L90.609 19.4696L92.3748 18.5304ZM87.053 11.6548H92.3087V9.65483H87.053V11.6548ZM106.041 0.818181H107.041V-0.181819H106.041V0.818181ZM106.041 19V20H107.041V19H106.041ZM101.104 19H100.104V20H101.104V19ZM101.104 0.818181V-0.181819H100.104V0.818181H101.104ZM105.041 0.818181V19H107.041V0.818181H105.041ZM106.041 18H101.104V20H106.041V18ZM102.104 19V0.818181H100.104V19H102.104ZM101.104 1.81818H106.041V-0.181819H101.104V1.81818ZM120.931 6.5L119.934 6.57975L120.008 7.5H120.931V6.5ZM120.265 5.11506L119.618 5.87759L119.624 5.88234L120.265 5.11506ZM117.229 4.80433L117.576 5.74213L117.586 5.73855L117.229 4.80433ZM116.519 5.29261L115.716 4.69629V4.69629L116.519 5.29261ZM116.279 6.00284L117.278 6.05682L117.278 6.04095L117.279 6.02506L116.279 6.00284ZM116.394 6.59766L115.5 7.04487L115.509 7.06299L115.519 7.08073L116.394 6.59766ZM116.838 7.06818L116.262 7.88515L116.27 7.89089L116.278 7.89646L116.838 7.06818ZM118.729 7.7429L118.939 6.76506L118.931 6.76336L118.729 7.7429ZM120.221 8.0625L120.011 9.04031L120.014 9.0408L120.221 8.0625ZM122.804 8.90589L122.366 9.80473L122.804 8.90589ZM124.562 10.1399L123.842 10.8334L123.846 10.8379L124.562 10.1399ZM125.565 11.7202L124.625 12.0619L124.629 12.0703L125.565 11.7202ZM125.903 13.6378L126.903 13.6427L126.903 13.6292L125.903 13.6378ZM125.006 16.674L125.82 17.2552L125.006 16.674ZM122.467 18.565L122.102 17.6341L122.1 17.6348L122.467 18.565ZM114.379 18.5117L114.009 19.4405L114.01 19.4412L114.379 18.5117ZM111.645 16.3544L110.81 16.9056L110.814 16.9114L111.645 16.3544ZM110.668 12.608V11.608H109.664L109.668 12.6118L110.668 12.608ZM115.356 12.608L116.354 12.5548L116.304 11.608H115.356V12.608ZM115.773 14.0107L114.937 14.5593L115.773 14.0107ZM116.821 14.8718L116.422 15.7891L116.427 15.7909L116.821 14.8718ZM119.768 14.9695L120.112 15.9083L119.768 14.9695ZM120.576 14.4279L121.359 15.0502L120.576 14.4279ZM120.86 13.6378L121.86 13.6578L121.86 13.6371L121.86 13.6165L120.86 13.6378ZM120.585 12.9098L119.806 13.5371L119.816 13.549L119.826 13.5606L120.585 12.9098ZM119.733 12.3416L119.335 13.2594L119.347 13.2643L119.733 12.3416ZM118.126 11.8622L118.34 10.8854L118.336 10.8847L118.126 11.8622ZM116.315 11.4716L116.103 12.4489L116.104 12.4491L116.315 11.4716ZM112.506 9.72266L111.841 10.4693L111.846 10.4737L112.506 9.72266ZM111.13 6.35795L112.13 6.36212L112.13 6.35283L111.13 6.35795ZM112.053 3.33061L111.242 2.74572L111.241 2.74675L112.053 3.33061ZM114.654 1.29758L114.255 0.380978L114.253 0.381764L114.654 1.29758ZM122.289 1.30646L121.872 2.21545L122.289 1.30646ZM124.766 3.38388L123.927 3.9283L123.932 3.93472L124.766 3.38388ZM125.654 6.5V7.5H126.659L126.654 6.49502L125.654 6.5ZM121.928 6.42025C121.863 5.60413 121.54 4.8774 120.906 4.34777L119.624 5.88234C119.783 6.01559 119.905 6.21216 119.934 6.57975L121.928 6.42025ZM120.912 4.35255C120.264 3.80229 119.391 3.6179 118.481 3.6179V5.6179C119.169 5.6179 119.485 5.76495 119.618 5.87757L120.912 4.35255ZM118.481 3.6179C117.901 3.6179 117.351 3.68721 116.872 3.87011L117.586 5.73855C117.758 5.67288 118.042 5.6179 118.481 5.6179V3.6179ZM116.882 3.86658C116.438 4.03107 116.017 4.29101 115.716 4.69629L117.321 5.88894C117.328 5.87992 117.381 5.81433 117.576 5.74208L116.882 3.86658ZM115.716 4.69629C115.434 5.07543 115.29 5.51428 115.279 5.98062L117.279 6.02506C117.28 5.95873 117.295 5.9241 117.321 5.88894L115.716 4.69629ZM115.28 5.94887C115.26 6.32252 115.326 6.69626 115.5 7.04487L117.289 6.15044C117.286 6.14393 117.274 6.12113 117.278 6.05682L115.28 5.94887ZM115.519 7.08073C115.703 7.41437 115.968 7.67764 116.262 7.88515L117.415 6.25121C117.307 6.17463 117.275 6.12422 117.27 6.11458L115.519 7.08073ZM116.278 7.89646C116.569 8.09314 116.908 8.25137 117.273 8.38239L117.948 6.49971C117.686 6.40583 117.51 6.31548 117.399 6.2399L116.278 7.89646ZM117.273 8.38239C117.643 8.51492 118.064 8.62699 118.528 8.72243L118.931 6.76336C118.531 6.68124 118.206 6.59209 117.948 6.49971L117.273 8.38239ZM118.52 8.7207L120.011 9.0403L120.43 7.0847L118.939 6.7651L118.52 8.7207ZM120.014 9.0408C120.962 9.24156 121.741 9.49999 122.366 9.80473L123.243 8.00706C122.435 7.6134 121.492 7.30958 120.428 7.0842L120.014 9.0408ZM122.366 9.80473C122.998 10.1131 123.482 10.4602 123.842 10.8334L125.283 9.44645C124.73 8.87269 124.042 8.39705 123.243 8.00706L122.366 9.80473ZM123.846 10.8379C124.207 11.2088 124.463 11.6155 124.625 12.0619L126.505 11.3784C126.241 10.6529 125.828 10.0061 125.278 9.44193L123.846 10.8379ZM124.629 12.0703C124.803 12.5358 124.898 13.0581 124.903 13.6463L126.903 13.6292C126.896 12.8325 126.766 12.0764 126.502 11.3701L124.629 12.0703ZM124.903 13.6328C124.898 14.6587 124.644 15.4602 124.192 16.0928L125.82 17.2552C126.552 16.2306 126.896 15.008 126.903 13.6427L124.903 13.6328ZM124.192 16.0928C123.73 16.7398 123.052 17.2611 122.102 17.6341L122.832 19.4959C124.084 19.0048 125.098 18.2654 125.82 17.2552L124.192 16.0928ZM122.1 17.6348C121.152 18.0089 119.966 18.2131 118.516 18.2131V20.2131C120.144 20.2131 121.592 19.9851 122.834 19.4952L122.1 17.6348ZM118.516 18.2131C117.032 18.2131 115.783 17.9933 114.748 17.5823L114.01 19.4412C115.33 19.9653 116.84 20.2131 118.516 20.2131V18.2131ZM114.75 17.5829C113.75 17.1838 113.005 16.5871 112.475 15.7974L110.814 16.9114C111.587 18.063 112.665 18.9045 114.009 19.4405L114.75 17.5829ZM112.479 15.8032C111.969 15.0312 111.674 13.988 111.668 12.6041L109.668 12.6118C109.675 14.27 110.03 15.7244 110.81 16.9056L112.479 15.8032ZM110.668 13.608H115.356V11.608H110.668V13.608ZM114.357 12.6611C114.394 13.3537 114.571 14.0022 114.937 14.5593L116.609 13.462C116.478 13.2616 116.377 12.9749 116.354 12.5548L114.357 12.6611ZM114.937 14.5593C115.301 15.1145 115.809 15.5228 116.422 15.7891L117.219 13.9545C116.932 13.8302 116.742 13.6644 116.609 13.462L114.937 14.5593ZM116.427 15.7909C117.035 16.0517 117.717 16.1648 118.445 16.1648V14.1648C117.919 14.1648 117.517 14.0825 117.215 13.9527L116.427 15.7909ZM118.445 16.1648C119.047 16.1648 119.613 16.0914 120.112 15.9083L119.424 14.0306C119.213 14.1079 118.897 14.1648 118.445 14.1648V16.1648ZM120.112 15.9083C120.592 15.7325 121.033 15.4602 121.359 15.0502L119.793 13.8057C119.752 13.8573 119.654 13.946 119.424 14.0306L120.112 15.9083ZM121.359 15.0502C121.679 14.6471 121.85 14.1719 121.86 13.6578L119.86 13.6178C119.859 13.6955 119.84 13.7471 119.793 13.8057L121.359 15.0502ZM121.86 13.6165C121.849 13.112 121.675 12.6456 121.344 12.259L119.826 13.5606C119.849 13.5883 119.859 13.6072 119.86 13.6591L121.86 13.6165ZM121.364 12.2825C121.044 11.8862 120.589 11.6157 120.118 11.4189L119.347 13.2643C119.669 13.399 119.782 13.5073 119.806 13.5371L121.364 12.2825ZM120.13 11.4239C119.65 11.2163 119.045 11.04 118.34 10.8854L117.911 12.839C118.556 12.9803 119.022 13.1237 119.335 13.2593L120.13 11.4239ZM118.336 10.8847L116.525 10.4941L116.104 12.4491L117.915 12.8397L118.336 10.8847ZM116.527 10.4943C115.03 10.1696 113.932 9.64491 113.166 8.97156L111.846 10.4737C112.938 11.4339 114.38 12.0751 116.103 12.4489L116.527 10.4943ZM113.171 8.97604C112.495 8.37336 112.125 7.54308 112.13 6.36212L110.13 6.35379C110.123 8.01374 110.67 9.4266 111.841 10.4693L113.171 8.97604ZM112.13 6.35283C112.125 5.39117 112.377 4.59239 112.865 3.91448L111.241 2.74675C110.486 3.79705 110.123 5.0165 110.13 6.36308L112.13 6.35283ZM112.864 3.9155C113.374 3.20806 114.092 2.63627 115.056 2.2134L114.253 0.381764C113.004 0.929545 111.987 1.71311 111.242 2.74573L112.864 3.9155ZM115.054 2.21419C116.02 1.79307 117.155 1.5696 118.481 1.5696V-0.430398C116.93 -0.430398 115.514 -0.168545 114.255 0.38098L115.054 2.21419ZM118.481 1.5696C119.839 1.5696 120.96 1.79701 121.872 2.21545L122.706 0.397477C121.476 -0.166566 120.058 -0.430398 118.481 -0.430398V1.5696ZM121.872 2.21545C122.79 2.63632 123.461 3.21027 123.927 3.92828L125.605 2.83948C124.911 1.77008 123.931 0.959088 122.706 0.397477L121.872 2.21545ZM123.932 3.93472C124.398 4.6417 124.649 5.48572 124.654 6.50498L126.654 6.49502C126.647 5.13502 126.306 3.90163 125.601 2.83304L123.932 3.93472ZM125.654 5.5H120.931V7.5H125.654V5.5Z" fill="white" fill-opacity="0.8"/>
</svg>
