<svg width="27" height="30" viewBox="0 0 27 30" fill="none" xmlns="http://www.w3.org/2000/svg">
<path d="M25.7641 7.15676C25.2797 5.42754 24.3207 4.0616 22.916 3.09527C21.1432 1.87223 19.1039 1.44113 17.3432 1.17715C14.9068 0.813867 12.7005 0.763008 10.5959 1.01973C8.62449 1.26191 7.13988 1.64699 5.78605 2.26941C3.13168 3.49004 1.53809 5.46387 1.05129 8.1352C0.813945 9.43332 0.654101 10.6055 0.56207 11.7244C0.348945 14.311 0.542695 16.5996 1.15301 18.7212C1.74879 20.7895 2.78777 22.2668 4.33051 23.238C4.72285 23.485 5.2266 23.6643 5.7134 23.8362C5.98949 23.9331 6.25832 24.0275 6.47871 24.1317C6.68215 24.2261 6.68215 24.2431 6.67973 24.4126C6.66277 25.8827 6.67973 28.7647 6.67973 28.7647L6.68457 29.3799H7.78894L7.96816 29.2055C8.08683 29.0941 10.8236 26.4494 11.7996 25.3838L11.9328 25.2361C12.0999 25.0423 12.0999 25.0423 12.2718 25.0399C13.5893 25.0132 14.9359 24.9624 16.2728 24.8897C17.893 24.8025 19.77 24.6451 21.5379 23.9089C23.1557 23.2332 24.3376 22.1603 25.0472 20.7217C25.7883 19.2201 26.2267 17.595 26.3914 15.752C26.682 12.5115 26.4761 9.69973 25.7641 7.15676ZM19.9371 19.7578C19.5302 20.4189 18.9247 20.8791 18.2103 21.177C17.6871 21.395 17.1543 21.3489 16.6385 21.131C12.3203 19.3025 8.93207 16.4229 6.69426 12.2814C6.23168 11.4289 5.91199 10.4989 5.54387 9.59801C5.46879 9.41395 5.47363 9.19598 5.43973 8.99254C5.47121 7.53699 6.58769 6.71598 7.71629 6.46895C8.14738 6.37207 8.53004 6.52465 8.84972 6.83223C9.73613 7.67504 10.4361 8.6559 10.964 9.75543C11.1941 10.2374 11.09 10.6636 10.6976 11.0221C10.6153 11.0971 10.5305 11.165 10.4409 11.2328C9.5448 11.9061 9.41402 12.4171 9.89113 13.4318C10.7049 15.1586 12.0563 16.3187 13.8025 17.038C14.2626 17.2269 14.6961 17.1325 15.0473 16.7595C15.0957 16.7111 15.149 16.6626 15.1829 16.6045C15.8707 15.4565 16.871 15.5704 17.7937 16.2243C18.3992 16.6554 18.9877 17.1107 19.5859 17.549C20.4989 18.2199 20.4917 18.8496 19.9371 19.7578ZM14.2093 8.29988C14.0059 8.29988 13.8025 8.31684 13.6014 8.35074C13.2624 8.40645 12.9451 8.17879 12.887 7.83973C12.8313 7.50309 13.0589 7.1834 13.398 7.1277C13.6644 7.08168 13.9381 7.05988 14.2093 7.05988C16.8952 7.05988 19.0797 9.24441 19.0797 11.9303C19.0797 12.2039 19.0579 12.4776 19.0119 12.7416C18.9611 13.0443 18.6995 13.2599 18.4016 13.2599C18.3677 13.2599 18.3338 13.2575 18.2975 13.2502C17.9608 13.1945 17.7332 12.8748 17.7889 12.5382C17.8228 12.3396 17.8397 12.1361 17.8397 11.9303C17.8397 9.9298 16.2098 8.29988 14.2093 8.29988ZM17.2197 12.0199C17.2197 12.3614 16.9412 12.6399 16.5997 12.6399C16.2582 12.6399 15.9797 12.3614 15.9797 12.0199C15.9797 10.9954 15.1442 10.1599 14.1197 10.1599C13.7782 10.1599 13.4997 9.88137 13.4997 9.53988C13.4997 9.1984 13.7782 8.91988 14.1197 8.91988C15.8296 8.91988 17.2197 10.31 17.2197 12.0199ZM20.7605 13.3979C20.6951 13.6861 20.4384 13.8799 20.155 13.8799C20.109 13.8799 20.063 13.875 20.017 13.8654C19.6828 13.7879 19.4745 13.4561 19.5496 13.1218C19.6392 12.7271 19.6852 12.3178 19.6852 11.9061C19.6852 8.89324 17.2318 6.43988 14.219 6.43988C13.8073 6.43988 13.398 6.4859 13.0032 6.57551C12.669 6.65301 12.3372 6.4423 12.2621 6.10809C12.1846 5.77387 12.3954 5.44207 12.7296 5.36699C13.2139 5.25559 13.7153 5.19988 14.219 5.19988C17.9172 5.19988 20.9252 8.20785 20.9252 11.9061C20.9252 12.4098 20.8695 12.9111 20.7605 13.3979Z" fill="#1F1F1F"/>
</svg>
