<svg width="130" height="60" viewBox="0 0 130 60" fill="none" xmlns="http://www.w3.org/2000/svg">
<path d="M64.1664 0.00475875C68.1507 -0.0840163 72.1706 1.0707 75.4481 3.35037C78.9521 5.74033 81.6147 9.3377 82.8669 13.39C84.1396 17.4508 84.0069 21.9386 82.4821 25.912C80.7877 30.3947 77.3293 34.1819 73.0139 36.2631C69.3512 38.0795 65.0924 38.636 61.0817 37.8711C56.6906 37.0612 52.6251 34.6282 49.8237 31.1564C47.0613 27.7873 45.4957 23.4392 45.5515 19.0785C45.5104 15.1265 46.7959 11.187 49.0969 7.98113C52.5061 3.15429 58.2568 0.107455 64.1664 0.00475875ZM59.2464 4.67054C56.1534 5.82333 53.4434 7.99216 51.6642 10.7742C49.6373 13.8649 48.8391 17.6946 49.3285 21.3494C50.7161 18.3329 52.4687 15.4352 54.8636 13.108C57.0799 10.8108 59.8467 9.11475 62.7634 7.85701C62.2023 7.37855 61.6434 6.89998 61.0951 6.41059C64.2269 5.84324 67.5398 6.09511 70.4999 7.29588C68.5687 9.34713 66.5848 11.3763 65.0188 13.73C64.7991 12.7202 64.5968 11.7044 64.375 10.6955C61.9673 12.314 60.2619 14.8177 59.2854 17.5231C57.9261 21.3162 57.685 25.4843 58.4568 29.4316C59.8923 29.2099 61.3191 28.8663 62.657 28.2922C65.8041 26.9935 68.2886 24.4531 69.9302 21.5124C68.8689 21.541 67.8096 21.6407 66.7481 21.6865C68.8447 19.4223 70.7325 16.9407 72.1488 14.1912C73.7754 16.8382 75.096 19.6594 76.24 22.5459C75.3875 22.2824 74.5324 22.0239 73.6711 21.7906C73.7799 25.365 73.4817 28.9642 72.4985 32.4141C76.492 30.0843 79.3002 25.8649 79.9287 21.2868C80.3898 18.0805 79.7938 14.7306 78.2562 11.8816C76.3617 8.27744 72.9685 5.51052 69.0691 4.35131C65.8737 3.38292 62.3699 3.5004 59.2464 4.67054ZM36.2953 48.9226C36.9802 47.7064 38.3554 47.0019 39.7257 46.9496C41.2876 46.8758 42.8512 46.9364 44.4153 46.9173C44.4153 47.8048 44.4153 48.6921 44.413 49.5818C43.0708 49.5841 41.7267 49.5771 40.3826 49.5796C39.7694 49.5728 39.0926 49.7337 38.7143 50.2576C38.3014 50.7929 38.3836 51.5083 38.3748 52.1432C38.4009 53.1509 38.34 54.1579 38.3989 55.165C38.4421 55.841 38.8644 56.5375 39.5644 56.6919C40.3564 56.8374 41.1696 56.751 41.9705 56.7156C41.9679 55.9523 41.9679 55.1884 41.9705 54.4255C41.4612 54.4213 40.9522 54.4194 40.4431 54.417C40.4453 53.6408 40.4453 52.862 40.4453 52.0852C41.8417 52.083 43.236 52.083 44.6303 52.083C44.6191 54.2601 44.6627 56.4374 44.6083 58.6126C43.1858 59.6521 41.3693 59.3216 39.7276 59.3718C38.2027 59.4046 36.7259 58.467 36.0978 57.0767C35.4884 55.8113 35.6931 54.3755 35.6603 53.0181C35.6558 51.6389 35.5712 50.1577 36.2953 48.9226ZM86.0279 48.659C86.7454 47.5802 88.0332 47.0041 89.3052 46.9477C90.869 46.8758 92.4371 46.9366 94.0057 46.9171C94.0057 47.8046 94.0057 48.6919 94.0033 49.5816C92.5874 49.5901 91.1711 49.5641 89.7557 49.5877C89.0708 49.5945 88.3026 49.9229 88.0834 50.6253C87.772 51.6785 87.9721 52.7919 87.9116 53.8748C87.9004 54.8125 87.8459 56.0388 88.799 56.5652C89.6666 56.9262 90.6479 56.733 91.5634 56.705C91.5567 55.9439 91.5588 55.1847 91.561 54.4255C91.052 54.4213 90.5428 54.419 90.0338 54.417C90.0361 53.6408 90.0361 52.862 90.0361 52.0852C91.4324 52.083 92.8267 52.083 94.2207 52.0852C94.2295 54.2365 94.2122 56.3873 94.2318 58.5407C92.8397 59.6677 90.9888 59.3216 89.34 59.3738C87.8044 59.4197 86.3014 58.4883 85.6733 57.0878C85.0379 55.8195 85.3058 54.3711 85.2515 53.0117C85.2341 51.539 85.127 49.9229 86.0279 48.659ZM0 47.0779C1.00705 47.0823 2.0142 47.0802 3.02296 47.0802C3.6432 49.6531 4.20809 52.2395 4.84986 54.8074C5.21524 52.2262 5.68053 49.6592 6.07857 47.0817C7.22055 47.0769 8.36027 47.0794 9.50214 47.0817C9.91742 49.6547 10.3374 52.2301 10.755 54.8031C11.3509 52.2278 11.9559 49.6525 12.5603 47.0794C13.5676 47.0794 14.5768 47.0817 15.5835 47.077C14.4654 51.1552 13.3279 55.2293 12.2209 59.3117C11.1878 59.3142 10.1568 59.3164 9.12348 59.3095C8.68635 56.7539 8.21014 54.2027 7.79657 51.6423C7.35933 54.2027 6.90678 56.7582 6.45241 59.3142H3.36371C2.25568 55.2323 1.11799 51.1585 0 47.0779ZM14.5858 59.3149C15.7018 55.2342 16.8327 51.1585 17.9525 47.0802H21.0585C22.1743 51.1606 23.3075 55.2342 24.4211 59.3124C23.4818 59.3149 22.5416 59.3124 21.5997 59.3171C21.4128 58.4818 21.2365 57.6466 21.0409 56.8136C20.03 56.811 19.0181 56.8136 18.0045 56.811C17.8218 57.6442 17.6324 58.4752 17.452 59.3081C16.4978 59.3191 15.5408 59.3149 14.5858 59.3149ZM18.5489 54.6386C19.2122 54.636 19.8761 54.6386 20.5391 54.6445C20.2151 53.172 19.8731 51.7061 19.5452 50.238C19.2122 51.7044 18.8775 53.1702 18.5489 54.6386ZM25.818 47.0258C27.7781 47.0318 29.7357 47.0103 31.6954 47.0341C32.8568 47.0121 34.0658 47.8543 34.1336 49.0747C34.1447 50.1664 34.1447 51.2584 34.1315 52.3504C34.1054 53.216 33.422 53.8777 32.6763 54.2098C33.3898 55.8935 34.1075 57.5753 34.8231 59.2609H31.7085C31.1516 57.7382 30.6257 56.2048 30.0553 54.6886C29.5115 54.691 28.9701 54.6933 28.4286 54.6933C28.4263 56.2159 28.4332 57.7404 28.4241 59.2631C27.5562 59.2588 26.6884 59.2588 25.8205 59.2631C25.8135 55.1821 25.818 51.104 25.818 47.0258ZM28.4281 49.4728C28.4281 50.4166 28.4259 51.3584 28.4305 52.3025C29.2176 52.283 30.0049 52.3373 30.7904 52.2809C31.2908 52.2413 31.5824 51.7345 31.5279 51.2672C31.5104 50.6924 31.7062 49.8186 31.0342 49.5468C30.179 49.3791 29.2961 49.5138 28.4281 49.4728ZM48.728 47.0823C49.7611 47.0775 50.7943 47.0846 51.8296 47.0758C52.9608 51.1518 54.0877 55.23 55.1964 59.3153H52.3755C52.1902 58.4775 52.0144 57.64 51.812 56.8074C50.8046 56.8182 49.7954 56.8139 48.7864 56.8122C48.6079 57.6474 48.4119 58.478 48.2361 59.3156H45.3694C46.4767 55.2341 47.6209 51.1627 48.728 47.0823ZM49.3284 54.6406C49.9916 54.6386 50.657 54.6386 51.3203 54.6386C50.9941 53.1678 50.6505 51.702 50.3285 50.2319C49.9872 51.6997 49.661 53.1702 49.3284 54.6406ZM56.3797 47.0802C57.493 47.0824 58.6066 47.0735 59.7203 47.0886C60.4879 50.0644 61.2906 53.0303 62.0694 56.0038C62.9052 53.0374 63.6701 50.0534 64.4857 47.0819C65.5885 47.0796 66.6914 47.0796 67.7963 47.0796V59.3144H65.2949C65.3146 56.9893 65.2518 54.6661 65.2083 52.3426C64.5666 54.6527 64.0095 56.9889 63.4201 59.3144C62.5178 59.312 61.6148 59.3251 60.7146 59.299C60.1404 56.9153 59.5314 54.5399 58.9374 52.1625C58.9266 54.5466 58.9353 56.9277 58.9328 59.3142H56.3772C56.3776 55.2366 56.3752 51.1585 56.3797 47.0802ZM69.9194 47.0823C70.8041 47.0801 71.6915 47.0801 72.5812 47.0801V59.3148H69.9168C69.9174 55.2366 69.9175 51.1585 69.9194 47.0823ZM74.7041 47.0823C75.572 47.0801 76.4397 47.0775 77.308 47.0823C78.5977 49.4531 79.8785 51.8263 81.1795 54.1902C81.1644 51.8197 81.1749 49.4511 81.1749 47.0823C82.0252 47.0801 82.8756 47.0801 83.726 47.0823C83.7282 51.1584 83.7282 55.2365 83.7282 59.3127C82.8583 59.3149 81.9903 59.3149 81.1246 59.3127C79.8257 56.9087 78.5492 54.495 77.2487 52.0934C77.266 54.5012 77.2534 56.9069 77.2575 59.3151H74.7018C74.7024 55.2366 74.7024 51.1585 74.7041 47.0823ZM100.64 47.0802C101.506 47.0802 102.373 47.0824 103.239 47.0779C104.562 49.4637 105.838 51.8737 107.161 54.2598C107.172 51.8652 107.161 49.4727 107.165 47.0801C107.998 47.0801 108.831 47.0801 109.664 47.0823C109.667 51.1584 109.667 55.2365 109.667 59.3148C108.792 59.3123 107.918 59.3233 107.045 59.3012C105.784 56.8762 104.461 54.4838 103.189 52.0648C103.204 54.4791 103.189 56.8953 103.198 59.3118C102.345 59.3166 101.493 59.3143 100.64 59.3143C100.64 55.2366 100.638 51.1585 100.64 47.0802ZM111.626 47.0823C114.234 47.0801 116.844 47.0801 119.454 47.0801C119.452 47.8762 119.452 48.6717 119.456 49.468C117.733 49.4786 116.011 49.468 114.288 49.4727C114.286 50.2339 114.286 50.9953 114.288 51.7564H118.962C118.965 52.5526 118.965 53.3508 118.962 54.1463C117.405 54.1489 115.848 54.1489 114.29 54.1489C114.286 55.0536 114.286 55.9607 114.29 56.8677H119.451C119.454 57.6834 119.454 58.4988 119.451 59.3148H111.624C111.624 55.2366 111.622 51.1585 111.626 47.0823ZM120.705 47.0823C123.515 47.0775 126.323 47.0823 129.133 47.0801V49.4727H126.308C126.303 52.7353 126.308 55.9978 126.303 59.2603H123.643C123.641 55.9999 123.639 52.7393 123.643 49.4784C122.665 49.4699 121.684 49.4699 120.705 49.4725V47.0823ZM96.0725 56.8136C96.9226 56.8136 97.7732 56.8136 98.6236 56.811C98.628 57.6442 98.628 58.4773 98.6298 59.3103C97.7773 59.3169 96.9247 59.3152 96.072 59.3152C96.0725 58.4797 96.0701 57.6466 96.0725 56.8136Z" fill="#121110"/>
</svg>
