<svg width="87" height="23" viewBox="0 0 87 23" fill="none" xmlns="http://www.w3.org/2000/svg">
<path d="M85.796 5.64655C85.5193 6.24766 84.9529 6.87499 84.452 6.95344L84.2293 7.00565C84.2293 7.00565 84.4272 5.67279 84.4401 5.28055C84.4797 3.45101 84.0442 1.54376 81.1735 1.69967C79.4083 1.8041 76.8393 3.3201 76.4439 6.59956V6.61267L76.4308 6.62579C76.4316 6.6483 76.4271 6.67069 76.4177 6.69112C75.9826 7.82799 75.1791 9.43555 74.5995 9.50089C74.5424 9.50787 74.4844 9.50213 74.4297 9.48408C74.375 9.46602 74.325 9.4361 74.2832 9.39645C74.2277 9.33462 74.1851 9.26232 74.1579 9.18378C74.1307 9.10525 74.1195 9.02207 74.1249 8.93913C74.1834 8.40266 74.2936 7.87309 74.454 7.3578C74.7018 6.45831 74.8781 5.54064 74.9814 4.61337C75.1922 2.37872 73.8086 1.93427 72.3725 2.03969C71.5169 2.12264 70.7096 2.47495 70.0669 3.0459L69.5524 3.62102C69.5524 3.62102 69.7897 2.52325 69.8555 2.22257C69.447 2.23569 66.9045 2.327 66.6409 2.327L65.508 6.86188C65.112 7.38453 64.5726 7.81587 64.1115 7.93342L63.8888 7.98563L63.8623 7.75029C63.8464 7.5168 63.8111 7.28504 63.7569 7.05737C63.6911 6.54784 63.2429 4.80961 61.5297 4.95389C57.1161 5.31989 57.2485 10.7432 59.8828 9.97231L60.1859 9.88075L60.133 10.2074C59.7774 12.3639 58.8553 13.5007 57.5771 13.6705C57.4842 13.6827 57.3898 13.6738 57.3009 13.6444C57.2119 13.6149 57.1308 13.5657 57.0636 13.5005C56.9395 13.3556 56.8463 13.1869 56.7895 13.0048C56.7327 12.8226 56.7137 12.6308 56.7335 12.4411C56.76 11.3824 58.8808 2.57423 58.8808 2.57423C58.8808 2.57423 55.0601 2.718 54.7834 2.73112C54.5855 3.54133 53.7441 7.04376 53.7441 7.04376L53.6122 7.50109C53.4738 7.961 53.3594 8.42778 53.2694 8.89954V8.927L53.2563 8.94012C53.2429 8.96635 53.2429 8.99234 53.2298 9.00545C52.5844 10.6652 51.4646 12.4685 50.595 12.5601C50.5163 12.5737 50.4354 12.5678 50.3595 12.5427C50.2836 12.5176 50.2151 12.4742 50.16 12.4163C50.0975 12.3501 50.049 12.272 50.0174 12.1867C49.9857 12.1014 49.9715 12.0106 49.9756 11.9196V11.9065L50.0545 11.1889C50.0545 11.1889 52.2283 3.30847 52.3867 2.78581C51.8992 2.79893 47.7229 2.87737 47.7229 2.87737L47.3143 4.31492C47.2089 3.1387 44.7189 1.57049 42.848 3.24338C40.872 5.00759 40.3315 7.66046 40.0288 10.2742L40.0023 10.3787C39.5817 13.5282 38.843 15.6844 36.6427 15.9588C36.211 16.0489 35.7616 15.9937 35.3645 15.8019C36 15.3643 36.542 14.8045 36.959 14.1553C37.7756 12.8093 37.4069 11.6331 36.5504 11.0711C34.8377 9.96019 32.9671 11.3185 32.6379 13.0444C32.4822 13.9015 32.6614 14.7856 33.1385 15.5144C32.5446 15.8542 32.0712 16.2202 31.2546 16.3246C31.0503 16.351 30.8427 16.3292 30.6483 16.2612C30.4538 16.1931 30.278 16.0806 30.1348 15.9326C29.6473 15.2793 30.306 13.1751 30.3983 12.9006C30.3983 12.9006 33.4283 3.9749 33.5996 3.42601C33.0727 3.45225 27.4997 3.63513 27.223 3.64874C27.0387 4.21074 26.3272 6.39317 25.6026 8.40559C24.1797 12.3403 20.0427 17.7235 15.7741 18.8213C13.5081 19.4093 11.7295 19.3049 10.6097 18.6122C9.08134 17.6718 8.19862 15.4364 8.79155 12.3C9.0284 10.8 9.49421 9.34524 10.1727 7.98662C13.7432 0.459107 19.4872 2.15798 19.1311 2.7331C18.7525 2.86575 18.3865 3.03197 18.0375 3.22977C17.1152 3.71333 15.6398 5.13776 15.5875 6.90196C15.548 8.03884 15.8642 8.95373 16.4834 9.55483C17.0894 10.1428 17.9853 10.4173 18.9997 10.3259C21.2657 10.1168 23.1101 8.43108 23.1893 5.921C23.2289 4.5619 22.8468 3.45101 22.0561 2.62768C20.7782 1.30768 19.2894 0.65436 15.9684 0.746914C10.8171 0.890693 3.01761 4.5369 0.777763 12.6007C0.026942 15.3189 1.01484 18.6122 2.66175 20.102C4.94094 22.1807 7.77347 22.9377 12.7404 22.01C17.1671 21.1866 20.7901 18.194 23.4647 15.0576C23.4669 15.1059 23.4625 15.1542 23.4516 15.2013C22.8193 17.5013 23.6756 19.9582 27.5621 19.4618C29.1825 19.2527 32.0282 18.3378 34.0178 16.7958C34.9268 17.58 36.5078 18.0504 38.299 17.7891C39.0372 17.6847 40.921 17.188 42.5802 14.8225C43.8844 12.9664 44.5432 9.3336 44.9119 7.37364C45.0831 6.458 45.1886 5.85765 45.3326 5.60943C45.4355 5.32246 45.6424 5.08461 45.9124 4.943C46.6108 4.65544 46.9664 5.32187 46.8345 5.83166C46.7031 6.32833 45.9782 8.8243 45.9782 8.83742L45.8463 9.22941C45.4256 10.4447 44.9371 11.8301 44.8978 13.2936C44.8713 14.3651 45.148 15.2147 45.7144 15.7374C46.2413 16.2209 46.9926 16.4169 47.8751 16.2862C50.3164 15.9304 52.0551 13.4747 52.873 12.0501L52.9915 11.841L53.1499 11.5534L53.2419 12.0892C53.624 14.2194 55.3237 15.0818 57.8795 14.7029C61.1862 14.2194 63.1754 12.5205 63.7819 9.56696L63.8079 9.4363L63.9267 9.3972C64.2472 9.27704 64.5523 9.1192 64.8356 8.927L65.0858 8.75699L63.9126 13.5007C64.387 13.4354 67.483 12.9127 67.7332 12.8865C67.7991 12.599 69.1562 6.84826 69.1562 6.84826C69.3935 5.85492 70.0389 3.96005 70.7766 3.90784C70.8499 3.9051 70.9229 3.91763 70.9911 3.94464C71.0592 3.97165 71.121 4.01255 71.1726 4.06473C71.3476 4.27672 71.4328 4.54877 71.4099 4.82273C71.3504 5.55304 71.1999 6.27306 70.962 6.96606C70.6371 8.06305 70.4123 9.18718 70.2901 10.3247C70.1055 12.3243 71.8051 12.3111 72.3057 12.2327C73.5045 12.0629 75.0989 11.4356 76.456 8.48205L76.5219 8.79585C76.6648 9.55276 77.0968 10.2243 77.7263 10.6683C78.3558 11.1122 79.1334 11.2937 79.8944 11.1743C81.8048 10.8867 83.109 9.85427 83.8338 8.15515L83.8863 8.0376L84.0048 8.02448C84.7559 7.94604 85.7834 7.0841 86.0472 6.07715C85.9539 6.02568 85.941 5.82968 85.796 5.64655ZM35.1918 11.9587C35.8768 11.985 36.1535 12.4042 35.7714 13.2394C35.587 13.6445 35.0465 14.2587 34.3484 14.7814C33.4919 13.4354 34.3351 11.9194 35.1918 11.9587ZM60.5663 8.36475C60.4344 8.54763 60.1703 8.66543 59.7363 8.74388C59.2884 8.82232 59.1698 8.57387 59.1565 8.46943C59.0644 8.07744 59.4992 7.43699 59.8682 7.26723C59.9524 7.22308 60.0468 7.20224 60.1417 7.20685C60.2367 7.21146 60.3287 7.24137 60.4082 7.29346C60.7111 7.6461 60.5663 8.36475 60.5663 8.36475ZM81.5932 8.16876C81.3166 8.99209 80.9473 9.88075 80.2096 9.97231C80.1013 9.99262 79.9899 9.9891 79.883 9.96201C79.7762 9.93492 79.6765 9.88489 79.591 9.81542C79.3408 9.5927 79.2354 9.38408 79.2487 8.6392C79.2883 6.88811 80.2104 2.51013 81.4621 2.45767C81.5486 2.45478 81.6346 2.47082 81.7143 2.50468C81.7939 2.53853 81.8652 2.58938 81.9231 2.65366C82.1864 2.94122 82.2918 3.49011 82.2263 4.14343L82.2129 4.22187C82.2129 4.22187 80.9087 4.27409 80.7637 6.20831C80.7452 6.54785 80.8186 6.8861 80.9762 7.1874C81.1338 7.4887 81.3698 7.7419 81.6593 7.9203L81.5932 8.16876ZM81.9489 6.88811C81.5282 6.62678 81.5403 5.85567 81.7776 5.58122C81.8214 5.52065 81.8839 5.47627 81.9556 5.45501C82.0272 5.43374 82.1038 5.43679 82.1735 5.46367C82.1508 5.94524 82.0756 6.42289 81.9491 6.88811H81.9489Z" fill="white"/>
</svg>
